<?xml version="1.0" encoding="UTF-8"?>
<!DOCTYPE svg PUBLIC "-//W3C//DTD SVG 1.1//EN" "http://www.w3.org/Graphics/SVG/1.1/DTD/svg11.dtd">
<!-- Creator: CorelDRAW X5 -->
<svg xmlns="http://www.w3.org/2000/svg" xml:space="preserve" width="300px" height="300px" style="shape-rendering:geometricPrecision; text-rendering:geometricPrecision; image-rendering:optimizeQuality; fill-rule:evenodd; clip-rule:evenodd"
viewBox="0 0 300 300"
 xmlns:xlink="http://www.w3.org/1999/xlink">
 <defs>
  <style type="text/css">
   <![CDATA[
    .str1 {stroke:black;stroke-width:0.9}
    .str0 {stroke:black;stroke-width:2.3622}
    .str2 {stroke:black;stroke-width:4.00039}
    .fil0 {fill:none}
    .fil1 {fill:black}
    .fil2 {fill:white}
   ]]>
  </style>
 </defs>
 <g id="Warstwa_x0020_1">
  <metadata id="CorelCorpID_0Corel-Layer"/>
  <path class="fil0 str0" d="M27 32l245 0 0 145c-21,-22 -52,-47 -63,-32 -1,4 -3,7 -1,11 1,3 7,6 15,11 0,0 -22,-15 -29,-14 -7,1 -17,15 -9,21l7 6c2,1 6,4 8,6 -3,0 -29,-26 -40,-21 -33,14 5,36 13,41 -4,0 -34,-27 -50,-35 -23,-12 -38,-22 -35,9 1,11 69,52 82,70 9,8 4,14 -21,11 -22,-3 -39,4 -48,11l-76 0 0 -240zm245 229l-8 11c2,-4 5,-7 8,-11z"/>
  <rect class="fil0 str0" x="113" y="85" width="65" height="65"/>
  <rect class="fil0 str0" x="193" y="85" width="65" height="65"/>
  <rect class="fil0 str0" x="113" y="162" width="65" height="65"/>
  <rect class="fil0 str0" x="192" y="162" width="65" height="65"/>
  <polygon class="fil0 str0" points="113,241 178,241 178,270 113,270 "/>
  <polygon class="fil0 str0" points="192,241 257,241 257,270 192,270 "/>
  <polygon class="fil0 str0" points="178,32 178,70 113,70 113,32 "/>
  <polygon class="fil0 str0" points="258,32 258,70 193,70 193,32 "/>
  <line class="fil0 str1" x1="100" y1="35" x2="100" y2= "260" />
  <rect class="fil1 str1" x="44" y="174" width="45" height="7"/>
  <rect class="fil1 str1" x="44" y="254" width="45" height="7"/>
  <rect class="fil1 str1" x="44" y="214" width="45" height="7"/>
  <rect class="fil1 str1" x="44" y="134" width="45" height="7"/>
  <rect class="fil1 str1" x="44" y="114" width="45" height="7"/>
  <rect class="fil1 str1" x="44" y="194" width="45" height="7"/>
  <rect class="fil1 str1" x="59" y="147" width="30" height="5"/>
  <rect class="fil1 str1" x="59" y="158" width="30" height="5"/>
  <rect class="fil1 str1" x="44" y="234" width="45" height="7"/>
  <line class="fil0 str1" x1="35" y1="58" x2="86" y2= "58" />
  <line class="fil0 str1" x1="90" y1="35" x2="89" y2= "260" />
  <circle class="fil1 str1" cx="79" cy="93" r="5"/>
  <rect class="fil1 str1" x="45" y="74" width="45" height="7"/>
  <path class="fil2 str2" d="M109 289c29,-1 107,16 143,-2 5,-2 10,-10 10,-10 8,-25 55,-41 31,-76 -8,-12 -67,-78 -83,-56 -1,4 -3,7 -1,11 1,3 7,6 15,11 0,0 -22,-15 -29,-14 -7,1 -17,15 -9,21l7 6c2,1 6,4 8,6 -3,0 -29,-26 -40,-21 -33,14 5,36 13,41 -4,0 -34,-27 -50,-35 -23,-12 -38,-22 -35,9 1,11 69,52 82,70 9,8 4,14 -21,11 -47,-6 -71,30 -42,29z"/>
  <polygon class="fil0 str1" points="54,86 59,86 85,86 85,100 54,100 54,94 "/>
 </g>
</svg>
