<svg height="512pt" viewBox="0 0 512 512" width="512pt" xmlns="http://www.w3.org/2000/svg"><path d="m234.667969 192c0 23.5625-19.105469 42.667969-42.667969 42.667969s-42.667969-19.105469-42.667969-42.667969 19.105469-42.667969 42.667969-42.667969 42.667969 19.105469 42.667969 42.667969zm0 0"/><path d="m490.667969 405.332031h-42.667969v-277.332031c0-35.285156-28.714844-64-64-64h-277.332031v-42.667969c0-11.773437-9.539063-21.332031-21.335938-21.332031s-21.332031 9.558594-21.332031 21.332031v42.667969h-42.667969c-11.796875 0-21.332031 9.558594-21.332031 21.332031 0 11.777344 9.535156 21.335938 21.332031 21.335938h42.667969v277.332031c0 35.285156 28.714844 64 64 64h277.332031v42.667969c0 11.773437 9.539063 21.332031 21.335938 21.332031s21.332031-9.558594 21.332031-21.332031v-42.667969h42.667969c11.796875 0 21.332031-9.558594 21.332031-21.332031 0-11.777344-9.535156-21.335938-21.332031-21.335938zm-106.667969-298.664062c11.777344 0 21.332031 9.578125 21.332031 21.332031v148.054688l-48.210937-48.214844c-14.082032-14.101563-38.828125-14.101563-52.90625 0l-101.546875 101.546875-26.882813-26.878907c-14.078125-14.101562-38.824218-14.101562-52.90625 0l-16.210937 16.191407v-212.03125zm0 0"/></svg>