<?xml version="1.0" encoding="UTF-8"?>
<!DOCTYPE svg PUBLIC "-//W3C//DTD SVG 1.1//EN" "http://www.w3.org/Graphics/SVG/1.1/DTD/svg11.dtd">
<!-- Creator: CorelDRAW X5 -->
<svg xmlns="http://www.w3.org/2000/svg" xml:space="preserve" width="50px" height="50px" style="shape-rendering:geometricPrecision; text-rendering:geometricPrecision; image-rendering:optimizeQuality; fill-rule:evenodd; clip-rule:evenodd"
viewBox="0 0 50 50"
 xmlns:xlink="http://www.w3.org/1999/xlink">
 <defs>
  <style type="text/css">
   <![CDATA[
    .str3 {stroke:black;stroke-width:0.900028}
    .str4 {stroke:#4D4D4D;stroke-width:0.900028}
    .str5 {stroke:#666666;stroke-width:0.900028}
    .str2 {stroke:#4D4D4D;stroke-width:1.00043}
    .str0 {stroke:#CCCCCC;stroke-width:1.00043}
    .str6 {stroke:black;stroke-width:1.99967}
    .str1 {stroke:black;stroke-width:2.36228}
    .fil0 {fill:none}
    .fil1 {fill:black}
    .fil2 {fill:white}
   ]]>
  </style>
 </defs>
 <g id="Warstwa_x0020_1">
  <metadata id="CorelCorpID_0Corel-Layer"/>
  <g id="_238688024">
   <polygon class="fil0 str0" points="19,13 30,13 30,24 19,24 "/>
   <polygon class="fil0 str0" points="33,13 44,13 44,24 33,24 "/>
   <polygon class="fil0 str0" points="19,27 30,27 30,38 19,38 "/>
   <polygon class="fil0 str1" points="33,27 44,27 44,38 33,38 "/>
   <polygon class="fil0 str0" points="19,40 30,40 30,45 19,45 "/>
   <polygon class="fil0 str1" points="33,40 44,40 44,45 33,45 "/>
   <polygon class="fil0 str0" points="30,3 30,10 19,10 19,3 "/>
   <polygon class="fil0 str0" points="44,3 44,10 33,10 33,3 "/>
   <path class="fil0 str2" d="M4 3l43 0 0 26c-4,-4 -9,-8 -11,-6 0,1 0,1 0,2 0,1 1,1 3,2 0,0 -4,-3 -5,-3 -1,0 -3,3 -2,4l1 1c0,0 1,1 1,1 -1,0 -5,-5 -7,-4 -6,2 1,6 2,7 -1,0 -6,-5 -9,-6 -4,-2 -7,-4 -6,2 0,2 12,9 15,12 2,1 1,3 -4,2 -4,0 -7,1 -8,2l-14 0 0 -43zm43 41l-1 2c0,-1 1,-1 1,-2z"/>
   <line class="fil0 str3" x1="16" y1="4" x2="16" y2= "44" />
   <polygon class="fil1 str4" points="6,29 14,29 14,30 6,30 "/>
   <polygon class="fil1 str4" points="6,43 14,43 14,44 6,44 "/>
   <polygon class="fil1 str4" points="6,36 14,36 14,37 6,37 "/>
   <polygon class="fil1 str4" points="6,21 14,21 14,23 6,23 "/>
   <polygon class="fil1 str4" points="7,18 15,18 15,19 7,19 "/>
   <polygon class="fil1 str4" points="6,32 14,32 14,33 6,33 "/>
   <polygon class="fil1 str4" points="9,24 14,24 14,25 9,25 "/>
   <polygon class="fil1 str4" points="9,26 14,26 14,27 9,27 "/>
   <polygon class="fil1 str4" points="6,39 14,39 14,40 6,40 "/>
   <line class="fil0 str3" x1="5" y1="8" x2="14" y2= "8" />
   <line class="fil0 str3" x1="15" y1="4" x2="14" y2= "44" />
   <path class="fil1 str5" d="M12 14c0,0 0,0 0,1 0,0 0,0 0,0 0,0 -1,0 -1,0 0,0 0,-1 1,-1z"/>
   <polygon class="fil1 str4" points="6,10 14,10 14,12 6,12 "/>
   <path class="fil2 str6" d="M18 49c5,0 19,3 25,0 1,0 2,-2 2,-2 1,-4 10,-7 5,-14 -1,-2 -12,-14 -15,-10 0,1 0,1 0,2 0,1 1,1 3,2 0,0 -4,-3 -5,-3 -1,0 -3,3 -2,4l1 1c0,0 1,1 1,1 -1,0 -5,-5 -7,-4 -6,2 1,6 2,7 -1,0 -6,-5 -9,-6 -4,-2 -7,-4 -6,2 0,2 12,9 15,12 2,1 1,3 -4,2 -8,-1 -13,5 -8,5z"/>
   <polygon class="fil0 str5" points="7,13 8,13 13,13 13,16 7,16 7,14 "/>
  </g>
 </g>
</svg>
