<?xml version="1.0" encoding="UTF-8"?>
<!DOCTYPE svg PUBLIC "-//W3C//DTD SVG 1.1//EN" "http://www.w3.org/Graphics/SVG/1.1/DTD/svg11.dtd">
<!-- Creator: CorelDRAW X5 -->
<svg xmlns="http://www.w3.org/2000/svg" xml:space="preserve" width="300px" height="300px" style="shape-rendering:geometricPrecision; text-rendering:geometricPrecision; image-rendering:optimizeQuality; fill-rule:evenodd; clip-rule:evenodd"
viewBox="0 0 300 300"
 xmlns:xlink="http://www.w3.org/1999/xlink">
 <defs>
  <style type="text/css">
   <![CDATA[
    .str0 {stroke:#2B2A29;stroke-width:0.9}
    .fil1 {fill:none}
    .fil0 {fill:#FEFEFE}
   ]]>
  </style>
 </defs>
 <g id="Warstwa_x0020_1">
  <metadata id="CorelCorpID_0Corel-Layer"/>
  <path class="fil0 str0" d="M160 29c-1,0 0,0 -1,0 0,1 -5,11 -6,12 -1,2 -3,8 0,10 1,1 5,4 6,4 1,-1 3,-13 3,-14 2,0 0,10 2,12 2,3 3,-1 4,-3 0,-1 4,-3 5,-5l0 0c1,-1 1,-3 -1,-4 -1,-1 -7,-8 -7,-9 0,0 -2,-3 -2,-3 -1,0 -1,0 -2,0 0,0 0,0 0,0 0,0 0,0 0,0z"/>
  <path class="fil0 str0" d="M151 51c0,0 4,6 5,6 0,0 2,1 3,3 1,2 0,7 0,10 0,2 -2,0 -2,-1 0,0 -6,-9 -6,-10 0,-2 0,-2 0,-5 0,0 1,-4 1,-4z"/>
  <path class="fil0 str0" d="M163 67c0,-1 2,-5 3,-6 0,0 2,-5 2,-6 1,-2 5,-7 6,-7 0,4 0,8 -1,11 0,3 -5,13 -7,16 0,0 0,1 -1,1 0,1 -1,2 -2,2 0,-1 -1,-3 -1,-5 0,0 1,-6 1,-7z"/>
  <path class="fil0 str0" d="M178 55c0,1 -8,20 -8,21 0,2 -4,12 -5,14 -2,4 -1,4 -2,8 0,1 -1,4 -1,6 1,0 0,1 1,1 0,0 1,0 1,-1 0,0 4,-7 4,-8 3,-6 7,-16 11,-21 2,-3 3,-6 4,-10 1,-5 -1,-5 -3,-9 0,0 -1,-1 -1,-1 0,0 -1,-1 -1,-1z"/>
  <path class="fil0 str0" d="M147 65c1,3 7,15 9,16 2,2 3,9 3,12 0,1 -1,8 -3,5 -2,-3 -8,-14 -9,-15 -3,-2 -3,-10 -2,-13 1,-1 0,-5 2,-6 0,0 0,0 0,0z"/>
  <path class="fil0 str0" d="M166 129c0,-1 -1,-8 0,-11 1,-3 1,-7 2,-10 1,-3 4,-12 5,-15 1,-2 3,-7 5,-8 1,-1 2,-7 3,-10 1,-2 3,-2 5,-3 1,-1 2,-1 3,-1 0,0 1,4 1,6 0,5 0,5 -1,9l0 0c-1,2 -2,8 -4,10 0,1 -5,9 -6,10 -1,4 -3,6 -5,10 0,1 -4,5 -5,7 0,1 -2,4 -3,5 0,0 0,0 0,0z"/>
  <path class="fil0 str0" d="M141 86c0,0 0,0 0,0 4,4 2,4 5,8 0,0 1,3 1,3 2,1 7,10 8,12 3,4 2,7 3,12 1,2 1,4 0,5 -4,0 -6,-6 -9,-10 0,0 -2,-2 -2,-2 0,-1 -5,-7 -5,-9 0,0 -2,-6 -3,-7 -1,-2 -1,-8 0,-9 0,-1 1,-2 1,-2z"/>
  <path class="fil0 str0" d="M132 123c-1,-6 -1,-12 1,-18 3,-6 9,8 10,10 3,5 7,13 11,20 2,3 5,6 6,11 0,3 3,17 2,19 -3,1 -7,-10 -9,-14 -2,-3 -7,-10 -8,-13 -1,0 -8,-13 -11,-14 -1,0 -1,0 -1,0z"/>
  <path class="fil0 str0" d="M129 126c1,0 1,0 1,0 6,2 10,18 14,21 0,0 8,11 9,12 1,3 3,6 5,13 1,4 0,3 -1,5 -4,0 -8,-8 -11,-12 -1,-2 -18,-23 -18,-23 -4,-1 -3,-8 -2,-11 0,-1 1,-4 2,-4z"/>
  <path class="fil1 str0" d="M167 137c0,0 0,0 0,0"/>
  <path class="fil0 str0" d="M167 149c0,-1 -1,-9 1,-15 0,-3 7,-17 10,-20 1,-1 11,-19 12,-21 1,0 1,0 1,-1 1,0 3,0 4,0 0,5 2,11 -1,16 -3,5 -18,34 -19,35 -1,0 -4,6 -4,6 0,0 -2,0 -2,0z"/>
  <path class="fil0 str0" d="M170 161c-1,-7 -1,-10 3,-16 2,-3 11,-16 11,-19 0,0 2,-4 2,-4 1,-2 5,-8 6,-3 1,5 -2,8 -3,14 0,4 -10,19 -13,22 0,0 0,1 -1,1 0,1 -6,5 -6,5z"/>
  <path class="fil0 str0" d="M125 148c1,0 7,4 8,5 2,1 8,9 8,9 1,2 5,8 6,11 1,2 4,10 4,12 0,2 1,5 1,8 0,0 -4,-3 -4,-3 0,0 -7,-10 -8,-11 -3,-3 -5,-7 -8,-9 -1,-1 -6,-4 -7,-4 0,-1 -2,-1 -1,-5 0,-3 -1,-4 0,-8 0,-2 0,-2 1,-4 0,0 0,0 0,0z"/>
  <path class="fil0 str0" d="M120 172c5,1 10,6 15,9l0 0c2,2 5,5 7,7 2,2 4,11 4,14 0,3 -1,3 -1,5 0,0 0,0 -1,1 -3,0 -6,-3 -9,-6 0,0 -1,0 -1,-1 -1,-1 -4,-3 -7,-4 -1,-1 -8,-3 -8,-4 0,-4 1,-6 1,-9 0,-2 -1,-10 -1,-12 0,0 0,-1 0,0z"/>
 </g>
</svg>
