<?xml version="1.0" encoding="UTF-8"?>
<!DOCTYPE svg PUBLIC "-//W3C//DTD SVG 1.1//EN" "http://www.w3.org/Graphics/SVG/1.1/DTD/svg11.dtd">
<!-- Creator: CorelDRAW X5 -->
<svg xmlns="http://www.w3.org/2000/svg" xml:space="preserve" width="300px" height="300px" style="shape-rendering:geometricPrecision; text-rendering:geometricPrecision; image-rendering:optimizeQuality; fill-rule:evenodd; clip-rule:evenodd"
viewBox="0 0 300 300"
 xmlns:xlink="http://www.w3.org/1999/xlink">
 <defs>
  <style type="text/css">
   <![CDATA[
    .str0 {stroke:#2B2A29;stroke-width:0.9}
    .fil1 {fill:none}
    .fil0 {fill:#FEFEFE}
   ]]>
  </style>
 </defs>
 <g id="Warstwa_x0020_1">
  <metadata id="CorelCorpID_0Corel-Layer"/>
  <path class="fil0 str0" d="M3019 -585c-1,0 -1,0 -1,0 -1,3 -10,21 -12,24 -3,4 -6,17 0,19 2,1 10,9 12,9 1,-2 6,-25 6,-28 5,0 0,19 3,23 4,5 5,-2 7,-7 1,-2 7,-5 9,-10l0 0c1,-2 1,-6 -2,-9 -2,-2 -14,-16 -14,-18 0,0 -4,-5 -4,-5 -2,0 -1,0 -3,1 0,0 0,0 0,1 0,0 0,0 -1,0z"/>
  <path class="fil0 str0" d="M3001 -541c0,0 8,12 9,12 0,1 3,3 5,6 2,4 -1,14 0,20 0,5 -3,0 -4,-1 0,0 -12,-19 -12,-20 0,-5 0,-4 1,-9 0,-1 2,-7 1,-8z"/>
  <path class="fil0 str0" d="M3023 -510c1,-2 4,-11 6,-12 0,0 3,-11 3,-12 1,-3 9,-14 13,-14 0,8 0,15 -2,23 -1,6 -11,25 -14,31 0,1 -1,2 -2,2 0,1 -3,5 -5,5 0,-1 -1,-6 -1,-11 0,-1 2,-13 2,-13z"/>
  <path class="fil0 str0" d="M3054 -534c0,2 -16,41 -17,42 -1,4 -8,24 -9,29 -3,9 -2,8 -3,15 0,2 -2,9 -1,11 1,0 1,2 1,3 0,-1 1,-1 2,-2 0,0 8,-14 8,-15 7,-12 15,-31 21,-41 4,-6 6,-13 7,-21 1,-9 -1,-11 -6,-18 0,0 -2,-1 -2,-1 0,-1 -1,-1 -1,-1z"/>
  <path class="fil0 str0" d="M2992 -514c1,7 14,29 18,33 5,4 7,18 7,24 0,1 -2,16 -6,10 -4,-5 -16,-28 -18,-29 -6,-5 -5,-19 -4,-26 2,-2 0,-10 3,-12 0,0 0,0 0,0z"/>
  <path class="fil0 str0" d="M3029 -385c0,-2 -2,-15 -1,-21 1,-7 2,-13 4,-20 2,-5 8,-24 11,-29 2,-3 7,-14 9,-16 3,-2 4,-14 6,-19 1,-4 6,-3 10,-6 3,-2 4,-1 6,-2 0,0 1,9 1,12 0,9 -1,10 -2,18l0 1c-1,5 -5,16 -8,20 -1,1 -11,19 -11,21 -2,7 -7,13 -10,19 -1,2 -9,10 -9,14 0,3 -3,9 -6,9 0,0 -1,0 -1,0z"/>
  <path class="fil0 str0" d="M2979 -472c0,-1 0,0 0,-1 8,8 5,8 9,15 0,0 3,6 3,6 3,3 13,19 16,24 5,8 3,15 6,23 1,3 2,7 1,11 -8,0 -12,-13 -17,-19 -1,-1 -3,-4 -4,-5 0,-2 -9,-15 -10,-18 0,0 -4,-11 -5,-13 -2,-4 -2,-15 0,-19 1,-1 1,-4 1,-5z"/>
  <path class="fil0 str0" d="M2963 -398c-3,-13 -3,-24 2,-35 5,-13 18,17 20,19 6,10 14,25 21,39 3,7 10,12 12,22 1,5 5,35 4,38 -6,1 -14,-20 -18,-28 -3,-6 -14,-19 -16,-26 -2,-1 -16,-26 -21,-28 -2,0 -3,-1 -3,0z"/>
  <path class="fil0 str0" d="M2957 -391c1,0 2,0 3,1 13,4 20,35 28,42 0,0 16,22 17,24 2,7 7,11 10,25 1,7 1,5 -1,10 -8,0 -17,-16 -23,-25 -1,-5 -35,-46 -35,-47 -8,-2 -6,-17 -3,-23 1,-2 2,-8 5,-8z"/>
  <path class="fil1 str0" d="M3032 -370c0,0 0,0 0,0"/>
  <path class="fil0 str0" d="M3032 -344c1,-2 -1,-19 1,-30 0,-6 14,-33 19,-40 2,-2 22,-38 23,-42 1,0 1,0 2,-2 2,-1 5,-1 7,-1 0,11 3,21 -3,31 -6,10 -36,67 -38,70 -1,1 -7,11 -7,13 0,0 -4,1 -4,1z"/>
  <path class="fil0 str0" d="M3038 -322c-2,-14 -2,-20 6,-31 5,-6 21,-31 22,-38 0,0 4,-7 4,-7 2,-5 10,-15 12,-6 3,10 -5,16 -6,27 -1,7 -19,37 -25,43 -1,1 0,1 -2,2 0,1 -12,11 -12,11z"/>
  <path class="fil0 str0" d="M2947 -348c2,0 14,8 15,11 4,1 16,18 17,18 2,4 9,17 12,22 2,4 8,19 9,23 1,5 2,11 2,15 -1,0 -9,-6 -9,-7 0,0 -14,-19 -16,-21 -5,-6 -11,-13 -16,-18 -1,-1 -13,-8 -14,-9 -1,-3 -3,-1 -3,-11 0,-6 -1,-9 0,-17 1,-3 -1,-5 2,-7 1,0 0,0 1,0z"/>
  <path class="fil0 str0" d="M2939 -300c11,3 20,12 29,17l1 0c4,4 11,10 14,15 4,3 7,23 7,29 0,6 -1,5 -3,10 -1,0 -1,1 -2,1 -7,0 -11,-6 -17,-11 -1,0 -1,-1 -2,-1 -2,-1 -7,-5 -13,-8 -3,-1 -15,-6 -15,-8 0,-7 3,-11 2,-18 -1,-3 -2,-21 -2,-24 0,-1 0,-1 1,-1z"/>
  <path class="fil0 str0" d="M3019 -585c-1,0 -1,0 -1,0 -1,3 -10,21 -12,24 -3,4 -6,17 0,19 2,1 10,9 12,9 1,-2 6,-25 6,-28 5,0 0,19 3,23 4,5 5,-2 7,-7 1,-2 7,-5 9,-10l0 0c1,-2 1,-6 -2,-9 -2,-2 -14,-16 -14,-18 0,0 -4,-5 -4,-5 -2,0 -1,0 -3,1 0,0 0,0 0,1 0,0 0,0 -1,0z"/>
  <path class="fil0 str0" d="M3001 -541c0,0 8,12 9,12 0,1 3,3 5,6 2,4 -1,14 0,20 0,5 -3,0 -4,-1 0,0 -12,-19 -12,-20 0,-5 0,-4 1,-9 0,-1 2,-7 1,-8z"/>
  <path class="fil0 str0" d="M3023 -510c1,-2 4,-11 6,-12 0,0 3,-11 3,-12 1,-3 9,-14 13,-14 0,8 0,15 -2,23 -1,6 -11,25 -14,31 0,1 -1,2 -2,2 0,1 -3,5 -5,5 0,-1 -1,-6 -1,-11 0,-1 2,-13 2,-13z"/>
  <path class="fil0 str0" d="M3054 -534c0,2 -16,41 -17,42 -1,4 -8,24 -9,29 -3,9 -2,8 -3,15 0,2 -2,9 -1,11 1,0 1,2 1,3 0,-1 1,-1 2,-2 0,0 8,-14 8,-15 7,-12 15,-31 21,-41 4,-6 6,-13 7,-21 1,-9 -1,-11 -6,-18 0,0 -2,-1 -2,-1 0,-1 -1,-1 -1,-1z"/>
  <path class="fil0 str0" d="M2992 -514c1,7 14,29 18,33 5,4 7,18 7,24 0,1 -2,16 -6,10 -4,-5 -16,-28 -18,-29 -6,-5 -5,-19 -4,-26 2,-2 0,-10 3,-12 0,0 0,0 0,0z"/>
  <path class="fil0 str0" d="M3029 -385c0,-2 -2,-15 -1,-21 1,-7 2,-13 4,-20 2,-5 8,-24 11,-29 2,-3 7,-14 9,-16 3,-2 4,-14 6,-19 1,-4 6,-3 10,-6 3,-2 4,-1 6,-2 0,0 1,9 1,12 0,9 -1,10 -2,18l0 1c-1,5 -5,16 -8,20 -1,1 -11,19 -11,21 -2,7 -7,13 -10,19 -1,2 -9,10 -9,14 0,3 -3,9 -6,9 0,0 -1,0 -1,0z"/>
  <path class="fil0 str0" d="M2979 -472c0,-1 0,0 0,-1 8,8 5,8 9,15 0,0 3,6 3,6 3,3 13,19 16,24 5,8 3,15 6,23 1,3 2,7 1,11 -8,0 -12,-13 -17,-19 -1,-1 -3,-4 -4,-5 0,-2 -9,-15 -10,-18 0,0 -4,-11 -5,-13 -2,-4 -2,-15 0,-19 1,-1 1,-4 1,-5z"/>
  <path class="fil0 str0" d="M2963 -398c-3,-13 -3,-24 2,-35 5,-13 18,17 20,19 6,10 14,25 21,39 3,7 10,12 12,22 1,5 5,35 4,38 -6,1 -14,-20 -18,-28 -3,-6 -14,-19 -16,-26 -2,-1 -16,-26 -21,-28 -2,0 -3,-1 -3,0z"/>
  <path class="fil0 str0" d="M2957 -391c1,0 2,0 3,1 13,4 20,35 28,42 0,0 16,22 17,24 2,7 7,11 10,25 1,7 1,5 -1,10 -8,0 -17,-16 -23,-25 -1,-5 -35,-46 -35,-47 -8,-2 -6,-17 -3,-23 1,-2 2,-8 5,-8z"/>
  <path class="fil1 str0" d="M3032 -370c0,0 0,0 0,0"/>
  <path class="fil0 str0" d="M3032 -344c1,-2 -1,-19 1,-30 0,-6 14,-33 19,-40 2,-2 22,-38 23,-42 1,0 1,0 2,-2 2,-1 5,-1 7,-1 0,11 3,21 -3,31 -6,10 -36,67 -38,70 -1,1 -7,11 -7,13 0,0 -4,1 -4,1z"/>
  <path class="fil0 str0" d="M3038 -322c-2,-14 -2,-20 6,-31 5,-6 21,-31 22,-38 0,0 4,-7 4,-7 2,-5 10,-15 12,-6 3,10 -5,16 -6,27 -1,7 -19,37 -25,43 -1,1 0,1 -2,2 0,1 -12,11 -12,11z"/>
  <path class="fil0 str0" d="M2947 -348c2,0 14,8 15,11 4,1 16,18 17,18 2,4 9,17 12,22 2,4 8,19 9,23 1,5 2,11 2,15 -1,0 -9,-6 -9,-7 0,0 -14,-19 -16,-21 -5,-6 -11,-13 -16,-18 -1,-1 -13,-8 -14,-9 -1,-3 -3,-1 -3,-11 0,-6 -1,-9 0,-17 1,-3 -1,-5 2,-7 1,0 0,0 1,0z"/>
  <path class="fil0 str0" d="M2939 -300c11,3 20,12 29,17l1 0c4,4 11,10 14,15 4,3 7,23 7,29 0,6 -1,5 -3,10 -1,0 -1,1 -2,1 -7,0 -11,-6 -17,-11 -1,0 -1,-1 -2,-1 -2,-1 -7,-5 -13,-8 -3,-1 -15,-6 -15,-8 0,-7 3,-11 2,-18 -1,-3 -2,-21 -2,-24 0,-1 0,-1 1,-1z"/>
  <path class="fil0 str0" d="M3019 -585c-1,0 -1,0 -1,0 -1,3 -10,21 -12,24 -3,4 -6,17 0,19 2,1 10,9 12,9 1,-2 6,-25 6,-28 5,0 0,19 3,23 4,5 5,-2 7,-7 1,-2 7,-5 9,-10l0 0c1,-2 1,-6 -2,-9 -2,-2 -14,-16 -14,-18 0,0 -4,-5 -4,-5 -2,0 -1,0 -3,1 0,0 0,0 0,1 0,0 0,0 -1,0z"/>
  <path class="fil0 str0" d="M3001 -541c0,0 8,12 9,12 0,1 3,3 5,6 2,4 -1,14 0,20 0,5 -3,0 -4,-1 0,0 -12,-19 -12,-20 0,-5 0,-4 1,-9 0,-1 2,-7 1,-8z"/>
  <path class="fil0 str0" d="M3023 -510c1,-2 4,-11 6,-12 0,0 3,-11 3,-12 1,-3 9,-14 13,-14 0,8 0,15 -2,23 -1,6 -11,25 -14,31 0,1 -1,2 -2,2 0,1 -3,5 -5,5 0,-1 -1,-6 -1,-11 0,-1 2,-13 2,-13z"/>
  <path class="fil0 str0" d="M3054 -534c0,2 -16,41 -17,42 -1,4 -8,24 -9,29 -3,9 -2,8 -3,15 0,2 -2,9 -1,11 1,0 1,2 1,3 0,-1 1,-1 2,-2 0,0 8,-14 8,-15 7,-12 15,-31 21,-41 4,-6 6,-13 7,-21 1,-9 -1,-11 -6,-18 0,0 -2,-1 -2,-1 0,-1 -1,-1 -1,-1z"/>
  <path class="fil0 str0" d="M2992 -514c1,7 14,29 18,33 5,4 7,18 7,24 0,1 -2,16 -6,10 -4,-5 -16,-28 -18,-29 -6,-5 -5,-19 -4,-26 2,-2 0,-10 3,-12 0,0 0,0 0,0z"/>
  <path class="fil0 str0" d="M3029 -385c0,-2 -2,-15 -1,-21 1,-7 2,-13 4,-20 2,-5 8,-24 11,-29 2,-3 7,-14 9,-16 3,-2 4,-14 6,-19 1,-4 6,-3 10,-6 3,-2 4,-1 6,-2 0,0 1,9 1,12 0,9 -1,10 -2,18l0 1c-1,5 -5,16 -8,20 -1,1 -11,19 -11,21 -2,7 -7,13 -10,19 -1,2 -9,10 -9,14 0,3 -3,9 -6,9 0,0 -1,0 -1,0z"/>
  <path class="fil0 str0" d="M2979 -472c0,-1 0,0 0,-1 8,8 5,8 9,15 0,0 3,6 3,6 3,3 13,19 16,24 5,8 3,15 6,23 1,3 2,7 1,11 -8,0 -12,-13 -17,-19 -1,-1 -3,-4 -4,-5 0,-2 -9,-15 -10,-18 0,0 -4,-11 -5,-13 -2,-4 -2,-15 0,-19 1,-1 1,-4 1,-5z"/>
  <path class="fil0 str0" d="M2963 -398c-3,-13 -3,-24 2,-35 5,-13 18,17 20,19 6,10 14,25 21,39 3,7 10,12 12,22 1,5 5,35 4,38 -6,1 -14,-20 -18,-28 -3,-6 -14,-19 -16,-26 -2,-1 -16,-26 -21,-28 -2,0 -3,-1 -3,0z"/>
  <path class="fil0 str0" d="M2957 -391c1,0 2,0 3,1 13,4 20,35 28,42 0,0 16,22 17,24 2,7 7,11 10,25 1,7 1,5 -1,10 -8,0 -17,-16 -23,-25 -1,-5 -35,-46 -35,-47 -8,-2 -6,-17 -3,-23 1,-2 2,-8 5,-8z"/>
  <path class="fil1 str0" d="M3032 -370c0,0 0,0 0,0"/>
  <path class="fil0 str0" d="M3032 -344c1,-2 -1,-19 1,-30 0,-6 14,-33 19,-40 2,-2 22,-38 23,-42 1,0 1,0 2,-2 2,-1 5,-1 7,-1 0,11 3,21 -3,31 -6,10 -36,67 -38,70 -1,1 -7,11 -7,13 0,0 -4,1 -4,1z"/>
  <path class="fil0 str0" d="M3038 -322c-2,-14 -2,-20 6,-31 5,-6 21,-31 22,-38 0,0 4,-7 4,-7 2,-5 10,-15 12,-6 3,10 -5,16 -6,27 -1,7 -19,37 -25,43 -1,1 0,1 -2,2 0,1 -12,11 -12,11z"/>
  <path class="fil0 str0" d="M2947 -348c2,0 14,8 15,11 4,1 16,18 17,18 2,4 9,17 12,22 2,4 8,19 9,23 1,5 2,11 2,15 -1,0 -9,-6 -9,-7 0,0 -14,-19 -16,-21 -5,-6 -11,-13 -16,-18 -1,-1 -13,-8 -14,-9 -1,-3 -3,-1 -3,-11 0,-6 -1,-9 0,-17 1,-3 -1,-5 2,-7 1,0 0,0 1,0z"/>
  <path class="fil0 str0" d="M2939 -300c11,3 20,12 29,17l1 0c4,4 11,10 14,15 4,3 7,23 7,29 0,6 -1,5 -3,10 -1,0 -1,1 -2,1 -7,0 -11,-6 -17,-11 -1,0 -1,-1 -2,-1 -2,-1 -7,-5 -13,-8 -3,-1 -15,-6 -15,-8 0,-7 3,-11 2,-18 -1,-3 -2,-21 -2,-24 0,-1 0,-1 1,-1z"/>
  <path class="fil0 str0" d="M3019 -585c-1,0 -1,0 -1,0 -1,3 -10,21 -12,24 -3,4 -6,17 0,19 2,1 10,9 12,9 1,-2 6,-25 6,-28 5,0 0,19 3,23 4,5 5,-2 7,-7 1,-2 7,-5 9,-10l0 0c1,-2 1,-6 -2,-9 -2,-2 -14,-16 -14,-18 0,0 -4,-5 -4,-5 -2,0 -1,0 -3,1 0,0 0,0 0,1 0,0 0,0 -1,0z"/>
  <path class="fil0 str0" d="M3001 -541c0,0 8,12 9,12 0,1 3,3 5,6 2,4 -1,14 0,20 0,5 -3,0 -4,-1 0,0 -12,-19 -12,-20 0,-5 0,-4 1,-9 0,-1 2,-7 1,-8z"/>
  <path class="fil0 str0" d="M3023 -510c1,-2 4,-11 6,-12 0,0 3,-11 3,-12 1,-3 9,-14 13,-14 0,8 0,15 -2,23 -1,6 -11,25 -14,31 0,1 -1,2 -2,2 0,1 -3,5 -5,5 0,-1 -1,-6 -1,-11 0,-1 2,-13 2,-13z"/>
  <path class="fil0 str0" d="M3054 -534c0,2 -16,41 -17,42 -1,4 -8,24 -9,29 -3,9 -2,8 -3,15 0,2 -2,9 -1,11 1,0 1,2 1,3 0,-1 1,-1 2,-2 0,0 8,-14 8,-15 7,-12 15,-31 21,-41 4,-6 6,-13 7,-21 1,-9 -1,-11 -6,-18 0,0 -2,-1 -2,-1 0,-1 -1,-1 -1,-1z"/>
  <path class="fil0 str0" d="M2992 -514c1,7 14,29 18,33 5,4 7,18 7,24 0,1 -2,16 -6,10 -4,-5 -16,-28 -18,-29 -6,-5 -5,-19 -4,-26 2,-2 0,-10 3,-12 0,0 0,0 0,0z"/>
  <path class="fil0 str0" d="M3029 -385c0,-2 -2,-15 -1,-21 1,-7 2,-13 4,-20 2,-5 8,-24 11,-29 2,-3 7,-14 9,-16 3,-2 4,-14 6,-19 1,-4 6,-3 10,-6 3,-2 4,-1 6,-2 0,0 1,9 1,12 0,9 -1,10 -2,18l0 1c-1,5 -5,16 -8,20 -1,1 -11,19 -11,21 -2,7 -7,13 -10,19 -1,2 -9,10 -9,14 0,3 -3,9 -6,9 0,0 -1,0 -1,0z"/>
  <path class="fil0 str0" d="M2979 -472c0,-1 0,0 0,-1 8,8 5,8 9,15 0,0 3,6 3,6 3,3 13,19 16,24 5,8 3,15 6,23 1,3 2,7 1,11 -8,0 -12,-13 -17,-19 -1,-1 -3,-4 -4,-5 0,-2 -9,-15 -10,-18 0,0 -4,-11 -5,-13 -2,-4 -2,-15 0,-19 1,-1 1,-4 1,-5z"/>
  <path class="fil0 str0" d="M2963 -398c-3,-13 -3,-24 2,-35 5,-13 18,17 20,19 6,10 14,25 21,39 3,7 10,12 12,22 1,5 5,35 4,38 -6,1 -14,-20 -18,-28 -3,-6 -14,-19 -16,-26 -2,-1 -16,-26 -21,-28 -2,0 -3,-1 -3,0z"/>
  <path class="fil0 str0" d="M2957 -391c1,0 2,0 3,1 13,4 20,35 28,42 0,0 16,22 17,24 2,7 7,11 10,25 1,7 1,5 -1,10 -8,0 -17,-16 -23,-25 -1,-5 -35,-46 -35,-47 -8,-2 -6,-17 -3,-23 1,-2 2,-8 5,-8z"/>
  <path class="fil1 str0" d="M3032 -370c0,0 0,0 0,0"/>
  <path class="fil0 str0" d="M3032 -344c1,-2 -1,-19 1,-30 0,-6 14,-33 19,-40 2,-2 22,-38 23,-42 1,0 1,0 2,-2 2,-1 5,-1 7,-1 0,11 3,21 -3,31 -6,10 -36,67 -38,70 -1,1 -7,11 -7,13 0,0 -4,1 -4,1z"/>
  <path class="fil0 str0" d="M3038 -322c-2,-14 -2,-20 6,-31 5,-6 21,-31 22,-38 0,0 4,-7 4,-7 2,-5 10,-15 12,-6 3,10 -5,16 -6,27 -1,7 -19,37 -25,43 -1,1 0,1 -2,2 0,1 -12,11 -12,11z"/>
  <path class="fil0 str0" d="M2947 -348c2,0 14,8 15,11 4,1 16,18 17,18 2,4 9,17 12,22 2,4 8,19 9,23 1,5 2,11 2,15 -1,0 -9,-6 -9,-7 0,0 -14,-19 -16,-21 -5,-6 -11,-13 -16,-18 -1,-1 -13,-8 -14,-9 -1,-3 -3,-1 -3,-11 0,-6 -1,-9 0,-17 1,-3 -1,-5 2,-7 1,0 0,0 1,0z"/>
  <path class="fil0 str0" d="M2939 -300c11,3 20,12 29,17l1 0c4,4 11,10 14,15 4,3 7,23 7,29 0,6 -1,5 -3,10 -1,0 -1,1 -2,1 -7,0 -11,-6 -17,-11 -1,0 -1,-1 -2,-1 -2,-1 -7,-5 -13,-8 -3,-1 -15,-6 -15,-8 0,-7 3,-11 2,-18 -1,-3 -2,-21 -2,-24 0,-1 0,-1 1,-1z"/>
  <path class="fil0 str0" d="M3019 -585c-1,0 -1,0 -1,0 -1,3 -10,21 -12,24 -3,4 -6,17 0,19 2,1 10,9 12,9 1,-2 6,-25 6,-28 5,0 0,19 3,23 4,5 5,-2 7,-7 1,-2 7,-5 9,-10l0 0c1,-2 1,-6 -2,-9 -2,-2 -14,-16 -14,-18 0,0 -4,-5 -4,-5 -2,0 -1,0 -3,1 0,0 0,0 0,1 0,0 0,0 -1,0z"/>
  <path class="fil0 str0" d="M3001 -541c0,0 8,12 9,12 0,1 3,3 5,6 2,4 -1,14 0,20 0,5 -3,0 -4,-1 0,0 -12,-19 -12,-20 0,-5 0,-4 1,-9 0,-1 2,-7 1,-8z"/>
  <path class="fil0 str0" d="M3023 -510c1,-2 4,-11 6,-12 0,0 3,-11 3,-12 1,-3 9,-14 13,-14 0,8 0,15 -2,23 -1,6 -11,25 -14,31 0,1 -1,2 -2,2 0,1 -3,5 -5,5 0,-1 -1,-6 -1,-11 0,-1 2,-13 2,-13z"/>
  <path class="fil0 str0" d="M3054 -534c0,2 -16,41 -17,42 -1,4 -8,24 -9,29 -3,9 -2,8 -3,15 0,2 -2,9 -1,11 1,0 1,2 1,3 0,-1 1,-1 2,-2 0,0 8,-14 8,-15 7,-12 15,-31 21,-41 4,-6 6,-13 7,-21 1,-9 -1,-11 -6,-18 0,0 -2,-1 -2,-1 0,-1 -1,-1 -1,-1z"/>
  <path class="fil0 str0" d="M2992 -514c1,7 14,29 18,33 5,4 7,18 7,24 0,1 -2,16 -6,10 -4,-5 -16,-28 -18,-29 -6,-5 -5,-19 -4,-26 2,-2 0,-10 3,-12 0,0 0,0 0,0z"/>
  <path class="fil0 str0" d="M3029 -385c0,-2 -2,-15 -1,-21 1,-7 2,-13 4,-20 2,-5 8,-24 11,-29 2,-3 7,-14 9,-16 3,-2 4,-14 6,-19 1,-4 6,-3 10,-6 3,-2 4,-1 6,-2 0,0 1,9 1,12 0,9 -1,10 -2,18l0 1c-1,5 -5,16 -8,20 -1,1 -11,19 -11,21 -2,7 -7,13 -10,19 -1,2 -9,10 -9,14 0,3 -3,9 -6,9 0,0 -1,0 -1,0z"/>
  <path class="fil0 str0" d="M2979 -472c0,-1 0,0 0,-1 8,8 5,8 9,15 0,0 3,6 3,6 3,3 13,19 16,24 5,8 3,15 6,23 1,3 2,7 1,11 -8,0 -12,-13 -17,-19 -1,-1 -3,-4 -4,-5 0,-2 -9,-15 -10,-18 0,0 -4,-11 -5,-13 -2,-4 -2,-15 0,-19 1,-1 1,-4 1,-5z"/>
  <path class="fil0 str0" d="M2963 -398c-3,-13 -3,-24 2,-35 5,-13 18,17 20,19 6,10 14,25 21,39 3,7 10,12 12,22 1,5 5,35 4,38 -6,1 -14,-20 -18,-28 -3,-6 -14,-19 -16,-26 -2,-1 -16,-26 -21,-28 -2,0 -3,-1 -3,0z"/>
  <path class="fil0 str0" d="M2957 -391c1,0 2,0 3,1 13,4 20,35 28,42 0,0 16,22 17,24 2,7 7,11 10,25 1,7 1,5 -1,10 -8,0 -17,-16 -23,-25 -1,-5 -35,-46 -35,-47 -8,-2 -6,-17 -3,-23 1,-2 2,-8 5,-8z"/>
  <path class="fil1 str0" d="M3032 -370c0,0 0,0 0,0"/>
  <path class="fil0 str0" d="M3032 -344c1,-2 -1,-19 1,-30 0,-6 14,-33 19,-40 2,-2 22,-38 23,-42 1,0 1,0 2,-2 2,-1 5,-1 7,-1 0,11 3,21 -3,31 -6,10 -36,67 -38,70 -1,1 -7,11 -7,13 0,0 -4,1 -4,1z"/>
  <path class="fil0 str0" d="M3038 -322c-2,-14 -2,-20 6,-31 5,-6 21,-31 22,-38 0,0 4,-7 4,-7 2,-5 10,-15 12,-6 3,10 -5,16 -6,27 -1,7 -19,37 -25,43 -1,1 0,1 -2,2 0,1 -12,11 -12,11z"/>
  <path class="fil0 str0" d="M2947 -348c2,0 14,8 15,11 4,1 16,18 17,18 2,4 9,17 12,22 2,4 8,19 9,23 1,5 2,11 2,15 -1,0 -9,-6 -9,-7 0,0 -14,-19 -16,-21 -5,-6 -11,-13 -16,-18 -1,-1 -13,-8 -14,-9 -1,-3 -3,-1 -3,-11 0,-6 -1,-9 0,-17 1,-3 -1,-5 2,-7 1,0 0,0 1,0z"/>
  <path class="fil0 str0" d="M2939 -300c11,3 20,12 29,17l1 0c4,4 11,10 14,15 4,3 7,23 7,29 0,6 -1,5 -3,10 -1,0 -1,1 -2,1 -7,0 -11,-6 -17,-11 -1,0 -1,-1 -2,-1 -2,-1 -7,-5 -13,-8 -3,-1 -15,-6 -15,-8 0,-7 3,-11 2,-18 -1,-3 -2,-21 -2,-24 0,-1 0,-1 1,-1z"/>
  <path class="fil0 str0" d="M160 29c-1,0 0,0 -1,0 0,1 -5,11 -6,12 -1,2 -3,8 0,10 1,1 5,4 6,4 1,-1 3,-13 3,-14 2,0 0,10 2,12 2,3 3,-1 4,-3 0,-1 4,-3 5,-5l0 0c1,-1 1,-3 -1,-4 -1,-1 -7,-8 -7,-9 0,0 -2,-3 -2,-3 -1,0 -1,0 -2,0 0,0 0,0 0,0 0,0 0,0 0,0z"/>
  <path class="fil0 str0" d="M151 51c0,0 4,6 5,6 0,0 2,1 3,3 1,2 0,7 0,10 0,2 -2,0 -2,-1 0,0 -6,-9 -6,-10 0,-2 0,-2 0,-5 0,0 1,-4 1,-4z"/>
  <path class="fil0 str0" d="M163 67c0,-1 2,-5 3,-6 0,0 2,-5 2,-6 1,-2 5,-7 6,-7 0,4 0,8 -1,11 0,3 -5,13 -7,16 0,0 0,1 -1,1 0,1 -1,2 -2,2 0,-1 -1,-3 -1,-5 0,0 1,-6 1,-7z"/>
  <path class="fil0 str0" d="M178 55c0,1 -8,20 -8,21 0,2 -4,12 -5,14 -2,4 -1,4 -2,8 0,1 -1,4 -1,6 1,0 0,1 1,1 0,0 1,0 1,-1 0,0 4,-7 4,-8 3,-6 7,-16 11,-21 2,-3 3,-6 4,-10 1,-5 -1,-5 -3,-9 0,0 -1,-1 -1,-1 0,0 -1,-1 -1,-1z"/>
  <path class="fil0 str0" d="M147 65c1,3 7,15 9,16 2,2 3,9 3,12 0,1 -1,8 -3,5 -2,-3 -8,-14 -9,-15 -3,-2 -3,-10 -2,-13 1,-1 0,-5 2,-6 0,0 0,0 0,0z"/>
  <path class="fil0 str0" d="M166 129c0,-1 -1,-8 0,-11 1,-3 1,-7 2,-10 1,-3 4,-12 5,-15 1,-2 3,-7 5,-8 1,-1 2,-7 3,-10 1,-2 3,-2 5,-3 1,-1 2,-1 3,-1 0,0 1,4 1,6 0,5 0,5 -1,9l0 0c-1,2 -2,8 -4,10 0,1 -5,9 -6,10 -1,4 -3,6 -5,10 0,1 -4,5 -5,7 0,1 -2,4 -3,5 0,0 0,0 0,0z"/>
  <path class="fil0 str0" d="M141 86c0,0 0,0 0,0 4,4 2,4 5,8 0,0 1,3 1,3 2,1 7,10 8,12 3,4 2,7 3,12 1,2 1,4 0,5 -4,0 -6,-6 -9,-10 0,0 -2,-2 -2,-2 0,-1 -5,-7 -5,-9 0,0 -2,-6 -3,-7 -1,-2 -1,-8 0,-9 0,-1 1,-2 1,-2z"/>
  <path class="fil0 str0" d="M132 123c-1,-6 -1,-12 1,-18 3,-6 9,8 10,10 3,5 7,13 11,20 2,3 5,6 6,11 0,3 3,17 2,19 -3,1 -7,-10 -9,-14 -2,-3 -7,-10 -8,-13 -1,0 -8,-13 -11,-14 -1,0 -1,0 -1,0z"/>
  <path class="fil0 str0" d="M129 126c1,0 1,0 1,0 6,2 10,18 14,21 0,0 8,11 9,12 1,3 3,6 5,13 1,4 0,3 -1,5 -4,0 -8,-8 -11,-12 -1,-2 -18,-23 -18,-23 -4,-1 -3,-8 -2,-11 0,-1 1,-4 2,-4z"/>
  <path class="fil1 str0" d="M167 137c0,0 0,0 0,0"/>
  <path class="fil0 str0" d="M167 149c0,-1 -1,-9 1,-15 0,-3 7,-17 10,-20 1,-1 11,-19 12,-21 1,0 1,0 1,-1 1,0 3,0 4,0 0,5 2,11 -1,16 -3,5 -18,34 -19,35 -1,0 -4,6 -4,6 0,0 -2,0 -2,0z"/>
  <path class="fil0 str0" d="M170 161c-1,-7 -1,-10 3,-16 2,-3 11,-16 11,-19 0,0 2,-4 2,-4 1,-2 5,-8 6,-3 1,5 -2,8 -3,14 0,4 -10,19 -13,22 0,0 0,1 -1,1 0,1 -6,5 -6,5z"/>
  <path class="fil0 str0" d="M125 148c1,0 7,4 8,5 2,1 8,9 8,9 1,2 5,8 6,11 1,2 4,10 4,12 0,2 1,5 1,8 0,0 -4,-3 -4,-3 0,0 -7,-10 -8,-11 -3,-3 -5,-7 -8,-9 -1,-1 -6,-4 -7,-4 0,-1 -2,-1 -1,-5 0,-3 -1,-4 0,-8 0,-2 0,-2 1,-4 0,0 0,0 0,0z"/>
  <path class="fil0 str0" d="M120 172c5,1 10,6 15,9l0 0c2,2 5,5 7,7 2,2 4,11 4,14 0,3 -1,3 -1,5 0,0 0,0 -1,1 -3,0 -6,-3 -9,-6 0,0 -1,0 -1,-1 -1,-1 -4,-3 -7,-4 -1,-1 -8,-3 -8,-4 0,-4 1,-6 1,-9 0,-2 -1,-10 -1,-12 0,0 0,-1 0,0z"/>
 </g>
</svg>
